<?xml version="1.0" encoding="UTF-8"?>
<svg id="Layer_1" data-name="Layer 1" xmlns="http://www.w3.org/2000/svg" viewBox="0 0 377.75 94.2">
  <defs>
    <style>
      .cls-1 {
        fill: #fff;
      }
    </style>
  </defs>
  <path class="cls-1" d="M112.91,40.77l2.28,6.15h5.8c-3.11-1.63-5.89-3.63-8.08-6.15Z"/>
  <polygon class="cls-1" points="48.65 22.61 65.37 22.61 72.92 2.17 72.92 1.54 0 1.54 0 22.61 23.91 22.61 23.91 46.92 48.65 46.92 48.65 22.61"/>
  <polygon class="cls-1" points="37.64 52.92 12.9 52.92 12.9 92.18 30.89 92.18 37.64 73.9 37.64 52.92"/>
  <path class="cls-1" d="M93.1,65.19h14.62l-4.55-12.27h-24.58l3.15,9.79h-17.52l3.29-9.79h-23.12l-7.75,20.98v18.28h17.87l4.14-12.43h28.65l4.14,12.43h24.55c-13.54-3.72-22.63-12.63-22.9-26.99Z"/>
  <path class="cls-1" d="M64.37,22.61l-8.98,24.31h23.12l2.28-6.79c1.42-4.14,3.2-10.89,3.2-10.89h.24s1.89,6.75,3.2,10.89l2.18,6.79h24.58l-2.28-6.15c-2.93-3.37-4.79-7.68-4.93-13.31L97.37,1.54h-25.21l-.23.63v20.44h-7.55Z"/>
  <polygon class="cls-1" points="30.89 92.18 37.64 92.18 37.64 73.9 30.89 92.18"/>
  <polygon class="cls-1" points="72.92 22.61 72.92 2.17 65.37 22.61 72.92 22.61"/>
  <path class="cls-1" d="M112.98,46.92h43.31v-10.2c-3.79-1.62-7.93-2.8-12.07-3.8-12.67-3.08-19.89-3.79-19.89-8.76,0-3.43,3.79-5.92,9.23-5.92,6.75,0,10.06,2.96,10.77,7.58h11.95V4.78c-5.99-3.3-13.56-4.78-21.42-4.78-19.06,0-34.92,7.34-34.92,26.75,0,.24.02.47.02.7l4.93,13.31c2.19,2.52,4.97,4.52,8.08,6.15Z"/>
  <path class="cls-1" d="M106.98,52.92c5.6,2.94,12.24,4.71,18.34,6.23,10.42,2.6,16.1,3.91,16.1,9s-5.92,6.98-10.77,6.98c-8.17,0-13.38-3.2-14.21-9.94h-10.71l10,26.99h-1.73c4.88,1.34,10.34,2.01,16.17,2.01,7.41,0,14.34-1.35,20.12-3.99v-37.28h-43.31Z"/>
  <path class="cls-1" d="M107.97,27.45c.14,5.63,2,9.94,4.93,13.31l-4.93-13.31Z"/>
  <path class="cls-1" d="M105.72,65.19h-14.62c.26,14.36,9.35,23.27,22.9,26.99h1.73l-10-26.99Z"/>
  <path class="cls-1" d="M167.84,25.81h-12.55v10.91c5.36,2.29,10.01,5.45,12.96,10.2h10.77l1.01-2.74V1.54h-24.74v3.24c7.37,4.05,12.36,10.84,12.55,21.03Z"/>
  <path class="cls-1" d="M162.25,52.92c2.12,3.42,3.38,7.65,3.38,12.98,0,11.62-6.52,19.82-16.34,24.3v1.98h9.23l14.5-39.26h-10.77Z"/>
  <path class="cls-1" d="M167.84,25.81c-.2-10.18-5.18-16.98-12.55-21.03v21.03h12.55Z"/>
  <path class="cls-1" d="M165.62,65.9c0-5.33-1.25-9.56-3.38-12.98h-12.96v37.28c9.82-4.48,16.34-12.68,16.34-24.3Z"/>
  <path class="cls-1" d="M155.29,36.71v10.2h12.96c-2.96-4.75-7.6-7.92-12.96-10.2Z"/>
  <path class="cls-1" d="M200.13,46.92l2.28-6.79c1.42-4.14,3.2-10.89,3.2-10.89h.24s1.89,6.75,3.2,10.89l2.18,6.79h23.62v-2.59L218.99,1.54h-25.21l-15.74,42.64v2.74h22.11Z"/>
  <polygon class="cls-1" points="205.22 52.92 208.36 62.71 190.84 62.71 194.13 52.92 172.02 52.92 172.02 92.18 181.14 92.18 185.28 79.75 213.93 79.75 218.07 92.18 228.84 92.18 228.84 52.92 205.22 52.92"/>
  <polygon class="cls-1" points="173.01 52.92 158.52 92.18 174.03 92.18 174.03 52.92 173.01 52.92"/>
  <polygon class="cls-1" points="178.03 46.92 178.03 44.18 177.02 46.92 178.03 46.92"/>
  <polygon class="cls-1" points="311.43 44.16 311.43 1.54 287.52 1.54 287.52 46.92 310.42 46.92 311.43 44.16"/>
  <polygon class="cls-1" points="281.52 52.92 281.52 55.13 281.28 55.13 279.99 52.92 257.85 52.92 279.86 92.18 289.92 92.18 304.41 52.92 281.52 52.92"/>
  <polygon class="cls-1" points="259.58 1.54 234.84 1.54 234.84 44.32 235.8 46.92 258.76 46.92 258.76 38.24 258.99 38.24 263.86 46.92 286 46.92 259.58 1.54"/>
  <polygon class="cls-1" points="244.35 92.18 252.75 92.18 252.75 52.92 229.8 52.92 244.35 92.18"/>
  <polygon class="cls-1" points="228.84 52.92 228.84 92.18 244.35 92.18 229.8 52.92 228.84 52.92"/>
  <polygon class="cls-1" points="235.8 46.84 234.84 44.25 234.84 46.84 235.8 46.84"/>
  <polygon class="cls-1" points="338.62 52.92 341.77 62.71 324.25 62.71 327.53 52.92 305.43 52.92 305.43 92.18 314.54 92.18 318.68 79.75 347.33 79.75 351.47 92.18 377.75 92.18 363.2 52.92 338.62 52.92"/>
  <path class="cls-1" d="M333.54,46.92l2.28-6.79c1.42-4.14,3.2-10.89,3.2-10.89h.24s1.89,6.75,3.2,10.89l2.18,6.79h24.58L352.39,1.54h-25.21l-15.74,42.62v2.75h22.1Z"/>
  <polygon class="cls-1" points="304.41 52.92 289.92 92.18 305.43 92.18 305.43 52.92 304.41 52.92"/>
  <polygon class="cls-1" points="311.43 47 311.43 44.25 310.42 47 311.43 47"/>
</svg>